<svg id="design" xmlns="http://www.w3.org/2000/svg" viewBox="0 0 1064.02 309.01"><defs><style>.cls-1{fill:#414042;}.cls-2{fill:#939598;}.cls-3{fill:#e52528;}.cls-4{fill:#ffde16;}.cls-5{fill:#eb5b2b;}.cls-6{fill:#f9b041;}</style></defs><path class="cls-1" d="M134.82,139.68,134.66,58l-40.5,68H86.8L46.3,58.52v81.16H30.93V27.62H44.06L90.8,106.38l46.1-78.76H150l.16,112.06Z"/><path class="cls-1" d="M334.27,59.48a39.13,39.13,0,0,1,15.29,15.2,45.11,45.11,0,0,1,5.53,22.58,45.56,45.56,0,0,1-5.53,22.65,38.94,38.94,0,0,1-15.29,15.28,44.56,44.56,0,0,1-22.08,5.45A40.07,40.07,0,0,1,294.9,137a33.16,33.16,0,0,1-13-10.72v13.45H267.2V20.9h15.37V67.64a32.63,32.63,0,0,1,12.81-10.17A40.69,40.69,0,0,1,312.19,54,44.56,44.56,0,0,1,334.27,59.48Zm-8.72,64a27.15,27.15,0,0,0,10.25-10.57,31.78,31.78,0,0,0,3.76-15.6,31.8,31.8,0,0,0-3.76-15.61,26.6,26.6,0,0,0-10.25-10.49,30.82,30.82,0,0,0-29.21,0,25.89,25.89,0,0,0-10.25,10.49,32.32,32.32,0,0,0-3.68,15.61,32.3,32.3,0,0,0,3.68,15.6,26.41,26.41,0,0,0,10.25,10.57,30.24,30.24,0,0,0,29.21,0Z"/><path class="cls-1" d="M368.61,35.62a9.45,9.45,0,0,1-3-7,9.72,9.72,0,0,1,3-7.12,10.06,10.06,0,0,1,7.45-3,10.41,10.41,0,0,1,7.44,2.8,9.21,9.21,0,0,1,3,7,9.9,9.9,0,0,1-3,7.28,10.09,10.09,0,0,1-7.44,3A10.24,10.24,0,0,1,368.61,35.62Zm-.24,19.21h15.37v84.85H368.37Z"/><path class="cls-1" d="M405,20.9H420.4V139.68H405Z"/><path class="cls-1" d="M518,102.38H449.21a26.66,26.66,0,0,0,9.84,18q8.4,6.8,20.89,6.8,15.21,0,24.49-10.25l8.49,9.93a37.08,37.08,0,0,1-14.33,10.24,53.93,53.93,0,0,1-43-2,39.4,39.4,0,0,1-16.09-15.44,44.29,44.29,0,0,1-5.68-22.41A45,45,0,0,1,439.36,75a39.55,39.55,0,0,1,15.21-15.44A43.35,43.35,0,0,1,476.42,54a42.47,42.47,0,0,1,21.69,5.53A38.83,38.83,0,0,1,513,75a47.15,47.15,0,0,1,5.36,22.74A45,45,0,0,1,518,102.38ZM457.93,73.72a27.11,27.11,0,0,0-8.72,17.61h54.42a27.29,27.29,0,0,0-8.72-17.53Q487.47,67,476.42,67T457.93,73.72Z"/><path class="cls-1" d="M527.8,89.09h43.06v13.29H527.8Z"/><path class="cls-1" d="M603.84,47.47v7.36h24.65V67.48H604.16v72.2H588.79V67.48h-14.4V54.83h14.4V47.31q0-12.64,7.37-20t20.65-7.36a34.59,34.59,0,0,1,9.6,1.28,23.23,23.23,0,0,1,7.68,3.68l-4.64,11.68a19.17,19.17,0,0,0-11.84-4Q603.84,32.58,603.84,47.47Z"/><path class="cls-1" d="M647.38,135a40.64,40.64,0,0,1-15.77-15.44,43.86,43.86,0,0,1-5.68-22.33,43.87,43.87,0,0,1,5.68-22.34,40.1,40.1,0,0,1,15.77-15.36,49.31,49.31,0,0,1,45.38,0,40.22,40.22,0,0,1,15.69,15.36,43.87,43.87,0,0,1,5.68,22.34,43.86,43.86,0,0,1-5.68,22.33A40.77,40.77,0,0,1,692.76,135a48.69,48.69,0,0,1-45.38,0Zm37.38-11.6a26.52,26.52,0,0,0,10.16-10.57,32.2,32.2,0,0,0,3.69-15.6,32.21,32.21,0,0,0-3.69-15.61,26,26,0,0,0-10.16-10.49,31,31,0,0,0-29.3,0,26.58,26.58,0,0,0-10.24,10.49,31.69,31.69,0,0,0-3.76,15.61,31.68,31.68,0,0,0,3.76,15.6,27.12,27.12,0,0,0,10.24,10.57,30.42,30.42,0,0,0,29.3,0Z"/><path class="cls-1" d="M901.1,20.9V139.68H886.37V126.23a33.13,33.13,0,0,1-13,10.72,40.1,40.1,0,0,1-17.29,3.69A44.57,44.57,0,0,1,834,135.19a38.94,38.94,0,0,1-15.29-15.28,45.56,45.56,0,0,1-5.52-22.65,45.1,45.1,0,0,1,5.52-22.58A39.13,39.13,0,0,1,834,59.48,44.57,44.57,0,0,1,856.12,54a40.73,40.73,0,0,1,16.81,3.44,32.67,32.67,0,0,1,12.8,10.17V20.9ZM872,123.43a26.38,26.38,0,0,0,10.24-10.57,32.19,32.19,0,0,0,3.68-15.6,32.2,32.2,0,0,0-3.68-15.61A25.87,25.87,0,0,0,872,71.16a30.84,30.84,0,0,0-29.22,0,26.58,26.58,0,0,0-10.24,10.49,31.69,31.69,0,0,0-3.76,15.61,31.68,31.68,0,0,0,3.76,15.6,27.12,27.12,0,0,0,10.24,10.57,30.26,30.26,0,0,0,29.22,0Z"/><path class="cls-2" d="M534.52,284.53,533.43,275c6.25-.71,12.57-1.58,18.79-2.58l1.52,9.47C547.38,282.91,540.91,283.8,534.52,284.53Zm38.3-6.14L570.88,269c6.14-1.27,12.36-2.7,18.49-4.24l2.35,9.3C585.45,275.64,579.1,277.1,572.82,278.39Zm37.59-9.47-2.74-9.2c6-1.79,12.09-3.73,18.08-5.79l3.11,9.07C622.75,265.1,616.54,267.09,610.41,268.92Zm-248.55-.49c-6.14-1.89-12.34-3.94-18.42-6.11l3.23-9c5.94,2.12,12,4.12,18,6Zm285.2-12.08-3.48-9c5.86-2.27,11.77-4.7,17.57-7.22L665,249C659.05,251.55,653,254,647.06,256.35Zm-321.75-.94c-6-2.44-12-5-17.8-7.72l4-8.71c5.7,2.62,11.56,5.16,17.41,7.54ZM682.58,241l-4.13-8.66c5.68-2.71,11.39-5.57,17-8.51l4.44,8.5C694.19,235.28,688.37,238.19,682.58,241Zm-392.52-1.78c-5.81-3-11.55-6.13-17.05-9.31l4.8-8.31c5.38,3.11,11,6.17,16.65,9.1ZM716.88,223l-4.74-8.35c5.5-3.11,11-6.36,16.39-9.65l5,8.18C728.07,216.57,722.47,219.87,716.88,223Zm-460.46-3.36c-10.35-6.75-15.88-11.19-16.11-11.38l6-7.46s5.42,4.35,15.32,10.81Z"/><path class="cls-3" d="M919.07,124.8a7.44,7.44,0,1,0,5.48,2.16A7.5,7.5,0,0,0,919.07,124.8Z"/><path class="cls-3" d="M955.36,99.08a14.73,14.73,0,0,1,7.06,1.73A14.34,14.34,0,0,1,967.8,106l9-5.23a19.46,19.46,0,0,0-8.37-8.61,27,27,0,0,0-13-3,29.26,29.26,0,0,0-14,3.27,24.22,24.22,0,0,0-9.58,9.08,25.18,25.18,0,0,0-3.46,13.18,25.47,25.47,0,0,0,3.46,13.24,24.12,24.12,0,0,0,9.63,9.12,29.28,29.28,0,0,0,13.93,3.27,26.41,26.41,0,0,0,12.87-3,20.23,20.23,0,0,0,8.46-8.65l-9-5.24a14.19,14.19,0,0,1-5.38,5.19,15.77,15.77,0,0,1-17.95-2.52q-4.26-4.26-4.26-11.37t4.3-11.36A14.8,14.8,0,0,1,955.36,99.08Z"/><path class="cls-3" d="M1025.23,94.69q-5.7-5.52-15.15-5.52a26.3,26.3,0,0,0-9.5,1.64,19,19,0,0,0-7.15,4.72V70.28H981.74v69.39h11.69V114.42q0-7.29,3.74-11.17t10.19-3.88q5.71,0,8.8,3.31t3.08,9.87v27.12h11.69V111.06Q1030.93,100.2,1025.23,94.69Z"/><path class="cls-4" d="M235,61.92a44.16,44.16,0,0,0-62.85,13.24C162.93,90.2,164,109.4,174,124l51.1,75a6.34,6.34,0,0,0,11.47-2.42L253,107.33C256.23,90,249.49,72,235,61.92Zm-19.25,64.43A28.77,28.77,0,1,1,238,92.27,28.79,28.79,0,0,1,215.75,126.35Z"/><path class="cls-5" d="M738.5,61.92c-14.5,10-21.24,28.07-18,45.41L737,196.6A6.34,6.34,0,0,0,748.44,199l51.1-75c9.92-14.58,11-33.78,1.81-48.82A44.16,44.16,0,0,0,738.5,61.92Zm53.33,42.2A28.77,28.77,0,1,1,769.61,70,28.77,28.77,0,0,1,791.83,104.12Z"/><path class="cls-6" d="M520.64,243.56l-13.11-7.77a4.09,4.09,0,0,1-1.72-2l-10.46-26.58a4.93,4.93,0,0,0-4.13-3.09l-15.65-1.43L380.9,194a4.45,4.45,0,0,0-4.83,4l-5.35,58.75a4.43,4.43,0,0,0,4,4.83l11.85,1.08a1.21,1.21,0,0,1,0-.19,17.31,17.31,0,0,1,18.82-15.68,15.44,15.44,0,0,1,1.68.24,17.33,17.33,0,1,0,17.41,19.09L466.82,270a1.34,1.34,0,0,1,0-.2,17.32,17.32,0,0,1,18.82-15.68c.58.05,1.15.14,1.71.24a17.33,17.33,0,1,0,17.38,19.09l12,1.09a4.45,4.45,0,0,0,4.83-4l2-21.46A5.79,5.79,0,0,0,520.64,243.56ZM406.8,269.68a5.29,5.29,0,1,1,5.75-4.79A5.28,5.28,0,0,1,406.8,269.68Zm-19.72-63.45a6.64,6.64,0,1,0,13.22,1.21,6.64,6.64,0,0,0,13.22,1.2,6.64,6.64,0,1,0,13.22,1.21,6.64,6.64,0,0,0,13.22,1.2,6.64,6.64,0,1,0,13.22,1.21,6.64,6.64,0,0,0,13.22,1.2L463.71,243a2,2,0,0,1-2.14,1.78l-75.4-6.87a2,2,0,0,1-1.78-2.14ZM475.9,231l2-22a1.56,1.56,0,0,1,1.71-1.42l9.46.86a2.34,2.34,0,0,1,2,1.48l9.17,23.47a1,1,0,0,1-1,1.34l-21.9-2A1.57,1.57,0,0,1,475.9,231ZM487,277a5.29,5.29,0,1,1,5.75-4.78A5.27,5.27,0,0,1,487,277Z"/></svg>